<svg id="Layer_1" data-name="Layer 1" xmlns="http://www.w3.org/2000/svg" viewBox="0 0 650 650"><defs><style>.cls-1{fill:#f2e01c;}.cls-2{fill:#ef3153;}.cls-3{fill:#f1f1f1;}.cls-4{fill:#404041;}.cls-5{fill:#161617;}.cls-6{fill:#c7c7c7;}.cls-7{fill:#ededed;}.cls-8{fill:#e5e5e5;}.cls-9{fill:#232323;}.cls-10{fill:#e0a4ab;}.cls-11{fill:#ffcdc2;}.cls-12{fill:#b8260c;}.cls-13{fill:#979a9b;}.cls-14{fill:#cce0ff;}.cls-15{fill:#414042;}.cls-16{fill:#121e21;}.cls-17{fill:#22393d;}.cls-18{fill:#9e1910;}.cls-19{fill:#3a3f49;}.cls-20{fill:#0e1521;}.cls-21{fill:#eef5ff;}.cls-22{fill:#af3723;}.cls-23{fill:#7a7b7c;}.cls-24{opacity:0.73;}.cls-25{fill:#fff;}.cls-26{fill:#c5c5c5;}.cls-27{fill:#d2d2d2;}.cls-28{fill:#f6f6f6;}.cls-29{fill:#d0011b;}</style></defs><rect class="cls-1" y="232.57" width="569.41" height="321.56" rx="24"/><path class="cls-2" d="M85.6,0H650a0,0,0,0,1,0,0V476.4a0,0,0,0,1,0,0H109.6a24,24,0,0,1-24-24V0A0,0,0,0,1,85.6,0Z"/><path class="cls-3" d="M338.93,579.7c-107.52,0-194.68,11.28-194.68,25.19s87.16,25.19,194.68,25.19,194.69-11.28,194.69-25.19S446.46,579.7,338.93,579.7"/><path class="cls-4" d="M517.64,475.8h-40.2a2.36,2.36,0,0,1-2.36-2.36V451.69a2.36,2.36,0,0,1,4.72,0v19.39h37.84a2.36,2.36,0,0,1,0,4.72Z"/><circle class="cls-5" cx="453.95" cy="508.52" r="11.09"/><rect class="cls-6" x="451.29" y="458.13" width="5.32" height="41.41"/><path class="cls-6" d="M453.54,511h0a3.07,3.07,0,0,1-2.93-2.14L445.91,494a2.11,2.11,0,0,1,2-2.74h8.69v16.7A3.07,3.07,0,0,1,453.54,511Z"/><circle class="cls-4" cx="444.18" cy="511.46" r="11.09"/><rect class="cls-6" x="441.52" y="453.98" width="5.32" height="48.5"/><path class="cls-6" d="M443.77,514h0a3.06,3.06,0,0,1-2.92-2.15l-4.7-14.88a2.1,2.1,0,0,1,2-2.73h8.69v16.69A3.07,3.07,0,0,1,443.77,514Z"/><circle class="cls-5" cx="203.1" cy="508.52" r="11.09"/><rect class="cls-6" x="200.44" y="458.13" width="5.32" height="41.41"/><path class="cls-6" d="M202.69,511h0a3.06,3.06,0,0,1-2.93-2.14L195.06,494a2.11,2.11,0,0,1,2-2.74h8.69v16.7A3.07,3.07,0,0,1,202.69,511Z"/><circle class="cls-4" cx="193.33" cy="511.46" r="11.09"/><path class="cls-7" d="M485.21,451.69v-48a10.41,10.41,0,0,1,10.41-10.41h0V371.4A10.41,10.41,0,0,1,506,361h7.39v90.7Z"/><rect class="cls-6" x="193.14" y="381.28" width="3.54" height="70.41"/><rect class="cls-6" x="282.22" y="381.28" width="3.54" height="70.41"/><rect class="cls-6" x="338.93" y="381.28" width="3.54" height="70.41"/><rect class="cls-6" x="406.13" y="381.28" width="3.54" height="70.41"/><path class="cls-8" d="M158.49,382.26v-6.78a19.16,19.16,0,0,1,19.16-19.17h0a20.91,20.91,0,0,1,11.46,3.42l89.28,54.21H464.7a21.12,21.12,0,0,1,21.12,21.11v18.86l-215.13-5.58-60.62-34.09L150,379.85Z"/><polygon class="cls-6" points="152.75 386.03 268.6 452.55 283.99 452.55 161.39 383.2 152.75 386.03"/><rect class="cls-6" x="179.87" y="381.28" width="3.54" height="70.41"/><rect class="cls-6" x="190.67" y="453.98" width="5.32" height="48.5"/><rect class="cls-6" x="241.64" y="381.28" width="3.54" height="70.41"/><rect class="cls-6" x="301.6" y="381.28" width="3.54" height="70.41"/><rect class="cls-6" x="361.33" y="381.28" width="3.54" height="70.41"/><rect class="cls-6" x="423.56" y="381.28" width="3.54" height="70.41"/><path class="cls-6" d="M148.75,356.31h2.06a8.29,8.29,0,0,1,8.29,8.29v83.73a0,0,0,0,1,0,0H140.46a0,0,0,0,1,0,0V364.6a8.29,8.29,0,0,1,8.29-8.29Z"/><rect class="cls-6" x="115.8" y="442.45" width="18.48" height="18.48"/><path class="cls-7" d="M140.46,376.53h294a4.23,4.23,0,0,1,4.23,4.23v1a4.23,4.23,0,0,1-4.23,4.23h-294a0,0,0,0,1,0,0v-9.5a0,0,0,0,1,0,0Z"/><path class="cls-7" d="M137,363.25h1.86a7.52,7.52,0,0,1,7.52,7.52v64.29a0,0,0,0,1,0,0H129.52a0,0,0,0,1,0,0V370.77A7.52,7.52,0,0,1,137,363.25Z"/><path class="cls-8" d="M137,373.21h1.86a7.52,7.52,0,0,1,7.52,7.52v71.83a0,0,0,0,1,0,0H129.52a0,0,0,0,1,0,0V380.72a7.52,7.52,0,0,1,7.52-7.52Z"/><rect class="cls-6" x="140.46" y="446.9" width="356.22" height="14.03"/><rect class="cls-8" x="124.17" y="446.9" width="355.46" height="5.66"/><path class="cls-6" d="M192.92,514h0A3.08,3.08,0,0,1,190,511.8l-4.7-14.88a2.11,2.11,0,0,1,2-2.73H196v16.69A3.08,3.08,0,0,1,192.92,514Z"/><polygon class="cls-6" points="524.88 479.89 511.76 481.67 511.76 465.22 524.88 467 524.88 479.89"/><rect class="cls-6" x="499.32" y="406.34" width="14.1" height="23.59"/><circle class="cls-9" cx="430.71" cy="237.66" r="11"/><polygon class="cls-10" points="408.52 280.08 406.45 318.68 417.37 320.55 431.25 312.4 429.92 277.63 408.52 280.08"/><path class="cls-11" d="M402.08,267.08s3.08,20.15,17.14,20.43,19.12-21.84,18.53-28.07-13.93-21.32-23.91-15.89S401.08,255.81,402.08,267.08Z"/><path class="cls-10" d="M399,260.24s-.86,8.73,3.82,9.74l.28-14Z"/><path class="cls-12" d="M406.2,264.37l-.27,13.57s4.28,9.29,13.4,9.47c7.72.15,12.29-7.25,12.29-7.25l.28-14.31S415.79,272.07,406.2,264.37Z"/><path class="cls-13" d="M421.23,268.43c-6.17,0-12.3-1.51-13.75-2.65-2.16-1.71-5.59-4.76-5.63-4.79l.38-.42s3.45,3.07,5.6,4.77,15.38,4.3,22.65.87c7.06-3.31,7.9-4.47,7.93-4.52l.49.29c-.08.13-.91,1.32-8.18,4.74A22.93,22.93,0,0,1,421.23,268.43Z"/><path class="cls-14" d="M408.07,303.12h0a13.83,13.83,0,0,0,20.94.06l1.15-1.33L428,411l-26-.51Z"/><path class="cls-10" d="M440.39,261.05s.51,8.76-4.21,9.58l.27-14Z"/><path class="cls-15" d="M419.82,246.28s8.18,12.32,16.57,13.4l-.07,3.61s2.51-.81,4,.14c0,0,5.83-28.48-19.45-29.82C394.45,232.2,399,262.9,399,262.9s1.76-2.3,4-1.18l.07-3.52A36.63,36.63,0,0,0,419.82,246.28Z"/><path class="cls-16" d="M387.38,584.16s.53,10.47-1.83,14.61-.17,11.56,15.17,11.42S414.65,599.54,411,595s-2.91-16.13-2.91-16.13Z"/><path class="cls-16" d="M424.81,584.19s.86,10.44-1.38,14.66.18,11.55,15.52,10.94,13.59-11.07,9.83-15.53-3.41-16-3.41-16Z"/><path class="cls-17" d="M384.58,469.83,382.29,586s16.63,6.75,29.86-.79L416,443.94l3.52,141.59s24,2.54,28.8-.58L446,451.07,432.57,399.6l-43.84,10.62Z"/><path class="cls-12" d="M408.34,288.91s-14,9.37-21.76,12.89-14.52,7.06-16.14,11.47-11.25,34.83-17.28,45.89-2.94,16.78,9.9,25.6,22.05,15,22.05,15,7.47-6.13,9.3-13.44c0,0-16.67-15-20.84-20.91,0,0,8.29-26.44,9.67-34.06-4.82,54.22-17.95,124.32-22.06,137.35,0,0,26.43,10.17,48.3,7.15,0,0-1.68-82.36,2.11-106.95,3.75-24.27,3-42.3-2.54-65.74C407.94,298.45,408.19,296.91,408.34,288.91Z"/><path class="cls-12" d="M430.35,288.88s16.32,12.73,24.72,17.72,12.23,8.5,15,18.43,10.3,35.15,12,41.34c2.27,8.08,6.19,11.83-4.44,27.23s-19.23,25.34-21.46,31l-9.81-17.18,16.71-32.27-11.86-36.8c2.45,46.66,7.05,87.15,18.32,129.4,0,0-31.24,11.38-42.39,6.34,0,0-3.66-82.27-5-108.47a283.93,283.93,0,0,1,1.09-41,74,74,0,0,1,1.4-9.11C426.11,309.06,428.75,296.79,430.35,288.88Z"/><path class="cls-18" d="M441.1,298.5c-.31,2.28-.73,4.53-1.16,6.78s-.91,4.49-1.4,6.72a.84.84,0,0,1-.31.48l-.05,0-3.54,2.73c-1.18.9-2.39,1.77-3.58,2.66l.15-1.66c.62.64,1.25,1.27,1.86,1.92l1.84,1.95h0a1.1,1.1,0,0,1,.06,1.44c-1.09,1.37-11.16,15-12.41,16.26.93-1.51,6.43-12,7.5-13.44s2.46-3.53,2.46-3.53c-.63-.64-2.31-2.42-2.92-3.06l0,0a1.09,1.09,0,0,1,0-1.55l.12-.1c1.22-.86,2.42-1.74,3.64-2.59l3.69-2.53-.36.52c.67-2.18,1.34-4.37,2.07-6.54S440.26,300.64,441.1,298.5Z"/><path class="cls-18" d="M396.86,297.63c.22,2.29.55,4.56.89,6.82s.74,4.52,1.14,6.77a.82.82,0,0,0,.29.49l.05,0,3.43,2.87c1.14.95,2.31,1.87,3.47,2.8l-.08-1.67c-.65.62-1.31,1.22-1.94,1.85l-1.91,1.87h0a1.09,1.09,0,0,0-.12,1.43c1,1.42,10.56,15.44,11.76,16.73-.87-1.54-5.95-12.28-7-13.71s-2.32-3.64-2.32-3.64c.66-.6,2.4-2.32,3-2.94h0a1.09,1.09,0,0,0,0-1.55l-.12-.11c-1.18-.91-2.35-1.84-3.54-2.73l-3.58-2.67.34.54c-.58-2.22-1.17-4.43-1.81-6.63S397.62,299.8,396.86,297.63Z"/><path class="cls-18" d="M443.11,400.88l-2.2,2.86a89.34,89.34,0,0,0,13.8,24.89l3.52-3S445.42,407.66,443.11,400.88Z"/><path class="cls-19" d="M394.18,335.78l1.72,0a3,3,0,0,1,3,3.09L398.8,342a3,3,0,0,1-3.08,3L394,345Z"/><ellipse class="cls-19" cx="394.09" cy="340.37" rx="5.05" ry="3.06" transform="translate(46.02 727.68) rotate(-88.87)"/><ellipse class="cls-20" cx="392.1" cy="340.41" rx="2.22" ry="1.99" transform="translate(44.03 725.73) rotate(-88.87)"/><path class="cls-16" d="M412,444.76h-.31a.56.56,0,0,1-.55-.57.53.53,0,0,1,.58-.55c.06,0,5.61.09,8.23-1.37a.57.57,0,0,1,.77.22.56.56,0,0,1-.22.76C418,444.66,413.27,444.76,412,444.76Z"/><path class="cls-15" d="M408.59,259.8a2.94,2.94,0,0,1,1.31-1.39,3.37,3.37,0,0,1,2-.41,3.31,3.31,0,0,1,1.86.77,4,4,0,0,1,.64.73,3.26,3.26,0,0,1,.38.88c-.33-.08-.59-.21-.86-.3s-.51-.21-.77-.26a5.57,5.57,0,0,0-1.39-.29A11.79,11.79,0,0,0,408.59,259.8Z"/><ellipse class="cls-15" cx="412.2" cy="262.87" rx="1.3" ry="1.18" transform="translate(146.06 672.97) rotate(-89.54)"/><path class="cls-15" d="M409.86,262.23a1.94,1.94,0,0,1,.73-.53,2.54,2.54,0,0,1,1.57-.17,2.05,2.05,0,0,1,.82.37,1.94,1.94,0,0,1-.73.53,2.39,2.39,0,0,1-.77.21,2.65,2.65,0,0,1-.79-.05A2.06,2.06,0,0,1,409.86,262.23Z"/><ellipse class="cls-15" cx="426.07" cy="263.15" rx="1.3" ry="1.18" transform="matrix(0.03, -1, 1, 0.03, 149.66, 680.73)"/><path class="cls-15" d="M428.43,262.59a1.94,1.94,0,0,1-.84.33,2.41,2.41,0,0,1-1.55-.22,2,2,0,0,1-.72-.56,2.12,2.12,0,0,1,.84-.33,2.52,2.52,0,0,1,1.56.23A2,2,0,0,1,428.43,262.59Z"/><path class="cls-15" d="M423.55,260.55a3,3,0,0,1,1.09-1.57,3.35,3.35,0,0,1,1.88-.7,3.31,3.31,0,0,1,2,.49,3.69,3.69,0,0,1,.74.62,3.64,3.64,0,0,1,.51.82,6.81,6.81,0,0,1-.9-.18c-.28,0-.54-.12-.8-.14a6.23,6.23,0,0,0-1.41-.08A11.78,11.78,0,0,0,423.55,260.55Z"/><path class="cls-19" d="M440.09,355.34a6.26,6.26,0,0,1-1.49-.18l.53-2.18a4.07,4.07,0,0,0,5-3.27l2-14.49a6.57,6.57,0,0,0-12.73-3.16l-5,13.83a4.09,4.09,0,0,0,.34,3.2,4,4,0,0,0,2.59,2l.4.1-.54,2.18-.39-.1a6.33,6.33,0,0,1-4.53-8.07l5-13.83a8.82,8.82,0,0,1,17.08,4.22l-1.95,14.49a6.42,6.42,0,0,1-2.78,4.26A6.35,6.35,0,0,1,440.09,355.34Z"/><path class="cls-19" d="M394.12,339.83h0a1.13,1.13,0,0,1-1.06-.8c-.11-.35-6.62-37.73,1.8-43.58a1.12,1.12,0,0,1,1.28,1.84c-6.52,4.53-1.68,37.53-.92,41.12a1.19,1.19,0,0,1,0,.33A1.13,1.13,0,0,1,394.12,339.83Z"/><circle class="cls-19" cx="431.17" cy="352.16" r="1.88"/><circle class="cls-19" cx="438.8" cy="354" r="1.88"/><path class="cls-19" d="M446.61,336.7c-3.53-4.78-8.22-6.06-14.34-3.91l-.38-1.06c6.56-2.31,11.81-.86,15.62,4.3Z"/><path class="cls-19" d="M442.05,327.88a1.06,1.06,0,0,1-.38-.07,1.12,1.12,0,0,1-.68-1.43c2.09-5.86,6.64-22,2.72-26.11a1.12,1.12,0,1,1,1.63-1.54c5.57,5.89-1.42,26.11-2.23,28.4A1.13,1.13,0,0,1,442.05,327.88Z"/><path class="cls-18" d="M378.83,369.86s20.84,11.61,21.26,11.64-8.62,29.33-8.62,29.33l-16.21-16.28Z"/><path class="cls-21" d="M384.9,364.22s29.63,2.72,33.4.66c0,0-1.62,48.95-2.44,51.69l-33.24,1.18S385.42,368.82,384.9,364.22Z"/><path class="cls-11" d="M392.21,387.77s12,1.87,15.13.79,8.29-4.59,9.31-2.66c1.26,2.37-4.84,5.58-4.84,5.58l5,.24c1.68.47,1.84,2.53.57,3.75,0,0,1.44,1.82-.07,3.27,0,0,1.33,2.34-.07,3.68,0,0,.55,5.06-15.18.43a146.94,146.94,0,0,1-14.13-5.56Z"/><path class="cls-10" d="M417.39,395.47l-6.18.34S414.87,394.42,417.39,395.47Z"/><path class="cls-10" d="M417.32,398.8l-6.16-.06S414.75,397.29,417.32,398.8Z"/><path class="cls-10" d="M417.26,402.16l-6.17-.06S414.68,400.64,417.26,402.16Z"/><path class="cls-12" d="M376.85,369.3l17.56,17s-4.4,9.48-9.3,13.44L368,388.15Z"/><path class="cls-22" d="M455.94,389c-2.32-19.86-4.61-41.63-4.67-50.59,0,0-6.76,46.64-4,66.85Z"/><path class="cls-15" d="M280.54,277.76s9.59-1.12,11.66-13.07-11.37-2.54-11.37-2.54Z"/><path class="cls-16" d="M240.15,579.27s-4.53,4.84-5.59,8.76-27,18.2-16.25,24.08,40.63-10.78,42.94-15.79.44-22,.44-22Z"/><path class="cls-16" d="M276.47,574.57s2.42,26.91,4.87,27.94,20.58,18.39,34.78,10.29-10-19.41-11.87-22.41-3.89-15.6-7-17.88S276.47,574.57,276.47,574.57Z"/><path class="cls-17" d="M231.43,458.94l1.58,120s18.78,9.73,34.22,1.9l-.34-117.25s4.37,47.35,3.77,54.49,2.27,60.9,2.27,60.9,24.75,7.15,35.07-4c0,0-3-48-5.38-76.92S299.31,453,299.31,453l-7.92-60.44-43.93,3.57Z"/><rect class="cls-16" x="255.54" y="410.53" width="25.16" height="4.08" transform="translate(-149.65 672.5) rotate(-88.87)"/><path class="cls-14" d="M251.06,286s13.15-9.31,39.49.38L282,404.07s-26.79,4.05-38.39-6.43Z"/><path class="cls-10" d="M259.35,269.23s2.39,14.49,1.84,18.79c0,0,1.52,11.8,11.22,10.13s10.16-15.63,10.16-15.63l.21-10.65Z"/><path class="cls-11" d="M256.84,270.08s6.64,10.31,14.39,10.23,14.77-7.84,17.45-15.62c2.09-.95,4.95-.52,4.57-11.21-1.36-7.71-16.19-23.34-29.93-17.94s-14.63,21.26-14.2,23.25,4.32,6.49,4.32,6.49Z"/><path class="cls-12" d="M258.32,256.93l-.27,13.77s4.35,9.43,13.6,9.61c7.82.15,12.47-7.36,12.47-7.36l.28-14.52S268.06,264.74,258.32,256.93Z"/><path class="cls-13" d="M273.57,261.05c-6.26,0-12.48-1.54-13.94-2.69-2.2-1.74-5.68-4.83-5.72-4.86l.38-.42s3.5,3.11,5.69,4.84,15.6,4.36,23,.89c7.16-3.37,8-4.54,8.05-4.59l.48.29c-.07.12-.91,1.34-8.29,4.81A23.41,23.41,0,0,1,273.57,261.05Z"/><path class="cls-12" d="M261.23,282.1s-37.16,10.16-43.29,21.38-16.36,69.23-16.06,70.17,14.66,48.61,14.66,48.61l-6.36,38.63s35.24,9,50.31,1c0,0,2.12-60.76,3.23-85.59C264.48,359.37,260.76,285.58,261.23,282.1Z"/><path class="cls-12" d="M282.59,281.61s11.54,5.23,21.65,9.12c11.24,4.34,14.28,6.56,19.09,22.5s16.75,54.73,15.93,61-24.75,45.31-24.75,45.31l7.22,37.39s-28,8.87-42.72,6c0,0-5.77-76.8-5.18-106.61C274.12,341.47,284.07,284.72,282.59,281.61Z"/><path class="cls-18" d="M243.58,395.08s-4.3-9.19-4.46-30.93-.74-35.69-.74-35.69-6.27,28.57-9,39.39,11,42.77,11,42.77Z"/><path class="cls-18" d="M238.56,290.68c1.05,2,2,4.07,3,6.12s1.89,4.13,2.79,6.21,1.8,4.16,2.64,6.26,1.71,4.19,2.52,6.3l-.71-.78c1.76.85,3.54,1.67,5.29,2.56l0,0a1.45,1.45,0,0,1,.78,1.32c-.08,2.26-.11,4.51-.22,6.76l-.15-.65c1.63,3.39,3.22,6.81,4.74,10.26s3,6.94,4.29,10.5c-2.11-3.15-4.07-6.38-6-9.64s-3.73-6.55-5.51-9.87a1.18,1.18,0,0,1-.15-.57v-.08c0-2.26,0-4.51.05-6.77l.82,1.35c-1.78-.83-3.52-1.74-5.28-2.61h0a1.4,1.4,0,0,1-.7-.78c-.8-2.12-1.55-4.25-2.29-6.39s-1.45-4.29-2.16-6.44-1.37-4.32-2-6.5S239.1,292.89,238.56,290.68Z"/><path class="cls-18" d="M302.55,291.94c-.62,2.19-1.32,4.36-2.05,6.51s-1.48,4.29-2.26,6.41-1.58,4.25-2.42,6.35l-1.24,3.16-1.3,3.14a1.37,1.37,0,0,1-.72.74h0l-2.67,1.21c-.9.42-1.8.79-2.7,1.18l.87-1.3c-.08,2.25-.11,4.5-.23,6.75v.1a1.11,1.11,0,0,1-.17.54c-.93,1.55-1.82,3.11-2.79,4.64S283,334.46,282,336c-1.94,3-3.95,6-6.09,9,1.38-3.36,2.9-6.64,4.48-9.89.77-1.63,1.61-3.23,2.41-4.85s1.66-3.19,2.49-4.8l-.17.64c0-2.25,0-4.51,0-6.76A1.43,1.43,0,0,1,286,318h0c.9-.39,1.79-.81,2.69-1.19l2.7-1.17-.75.76,1.36-3.11,1.41-3.09c.92-2.07,1.9-4.11,2.88-6.15s2-4.07,3-6.09S301.41,293.92,302.55,291.94Z"/><path class="cls-15" d="M262.84,240.09s2.42,7,6.33,9.65a61,61,0,0,1,.16-8.15s2.44,6.22,7.06,8.29a13.52,13.52,0,0,0,3.7-4.69s1.58,5.46,5.79,7.79c0,0,1.91-2.52,1.93-3.22,0,0,2.69,2.35,2.6,5.34,0,0,3.94-.58,2.57,3.77a9.74,9.74,0,0,1-4.3,5.82s4.06.76,6.52,0a29.22,29.22,0,0,0-.2-13.76,2.68,2.68,0,0,1,2.19,1.23s1-26.28-23.14-25.39c0,0-19-3.63-26.86,21.08l2.56.05a52.69,52.69,0,0,0-1.49,16.57l3.27-.28c1.5,7.17,4.64,11.74,9.15,14.15l-.67-4.52q-3.76-4.06-5.18-11.67s-3.8-.65-4.23-4.11c-.6-4.83,3.5-4.75,3.5-4.75l1.83-5.74,2.53,2.66S262.17,244.19,262.84,240.09Z"/><polygon class="cls-21" points="239.58 386.09 265.45 410.74 227.31 451.48 201.88 424.66 239.58 386.09"/><path class="cls-18" d="M302.54,329.73s12.08,37.16,12.91,42.3S297,405.21,297,405.21C301.33,382.55,302.76,357,302.54,329.73Z"/><path class="cls-18" d="M297.1,398.69s-2.69,12.3,13.07,28.68l-1.49,4.4s-15-14-16.42-32.24Z"/><circle class="cls-23" cx="280.79" cy="363.54" r="1.98"/><circle class="cls-23" cx="282.07" cy="386.75" r="1.98"/><circle class="cls-23" cx="282.9" cy="412.56" r="1.98"/><circle class="cls-23" cx="284.48" cy="437.23" r="1.98"/><path class="cls-10" d="M254.1,253.29l.73,8.86A24.84,24.84,0,0,1,254.1,253.29Z"/><path class="cls-10" d="M290.41,255.1l-1.73,9.59S291.16,258,290.41,255.1Z"/><path class="cls-16" d="M265.49,442.49l5.78-3.54S272.15,441.38,265.49,442.49Z"/><path class="cls-16" d="M267.09,464.73l.45-23.17S270.39,453.84,267.09,464.73Z"/><ellipse class="cls-15" cx="264.21" cy="254.92" rx="1.78" ry="1.13" transform="translate(4.14 514.06) rotate(-88.87)"/><ellipse class="cls-15" cx="279.11" cy="255.21" rx="1.78" ry="1.13" transform="translate(18.45 529.23) rotate(-88.87)"/><path class="cls-15" d="M259.61,254.77a9.63,9.63,0,0,1-5.78-3.05l.43-.36a9.24,9.24,0,0,0,5.41,2.85Z"/><path class="cls-15" d="M264.84,259.33a13.41,13.41,0,0,1-5.15-.94l-.17-.07-.13-5.58H260l.12,5.22a14.74,14.74,0,0,0,9.11.17l.09-4.53h.56l-.1,4.93-.19.07A15.7,15.7,0,0,1,264.84,259.33Z"/><path class="cls-15" d="M284.09,255.25l0-.56a9.14,9.14,0,0,0,5.52-2.64l.42.38A9.56,9.56,0,0,1,284.09,255.25Z"/><path class="cls-15" d="M279.29,259.62a15.32,15.32,0,0,1-5.28-.94l-.19-.07.1-4.93h.56l-.09,4.53a14.63,14.63,0,0,0,9.11.19l.33-5.21.56,0L284,258.8l-.17.07A13.06,13.06,0,0,1,279.29,259.62Z"/><path class="cls-15" d="M274,257.13a3.58,3.58,0,0,0-4.3-.11l-.36-.44a4.17,4.17,0,0,1,5,.08Z"/><path class="cls-15" d="M275.63,251.13a4,4,0,0,1,1.5-1.56,4.37,4.37,0,0,1,2.18-.6,3.42,3.42,0,0,1,2.2.76,3.23,3.23,0,0,1,1.18,1.85,13.63,13.63,0,0,0-1.78-.79,5,5,0,0,0-1.61-.27A18.27,18.27,0,0,0,275.63,251.13Z"/><path class="cls-15" d="M260.76,250.84a4,4,0,0,1,1.5-1.56,4.35,4.35,0,0,1,2.18-.61,3.54,3.54,0,0,1,2.2.76,3.28,3.28,0,0,1,1.18,1.86,13.47,13.47,0,0,0-1.78-.79,4.58,4.58,0,0,0-1.61-.27A17.48,17.48,0,0,0,260.76,250.84Z"/><path class="cls-11" d="M232.81,408.85s7.25,11.1,10.44,12.89,9.82,3.37,9,5.62c-1,2.76-8.09.15-8.09.15l3.48,4.25c.85,1.71-.71,3.35-2.63,3.21,0,0-.43,2.51-2.71,2.34,0,0-.93,2.8-3.05,2.65,0,0-3.71,4.15-11.48-12a160,160,0,0,1-5.84-15.56Z"/><path class="cls-10" d="M245,435l-4.81-4.77S244,432.16,245,435Z"/><path class="cls-10" d="M242.25,437.36l-4.47-5.06S241.59,434.16,242.25,437.36Z"/><path class="cls-10" d="M239.47,439.77,235,434.71S238.81,436.57,239.47,439.77Z"/><path class="cls-12" d="M211.93,405.71l4.61,16.55s17-3.5,23.83-11.64l-7.66-21Z"/><path class="cls-10" d="M291.06,258.12s1.08-1.34.79.41a6.14,6.14,0,0,1-1.6,3s1.47-.24,2.08-3.2c.3-1.46-.22-1.71-.6-1.41A3,3,0,0,0,291.06,258.12Z"/><path class="cls-10" d="M253,257s-1.2-1.42-.87.43a6.5,6.5,0,0,0,1.78,3.21s-1.63-.26-2.31-3.41c-.34-1.55.23-1.81.66-1.49A3.17,3.17,0,0,1,253,257Z"/><rect class="cls-8" x="76.6" y="345.94" width="9" height="12.42" rx="4"/><rect class="cls-8" x="109.3" y="264.9" width="2.36" height="15.69"/><path class="cls-8" d="M63.58,261.64H51.74a4.35,4.35,0,0,1-4.34-4.34,2,2,0,0,0-2-2H32.74a1.18,1.18,0,1,1,0-2.36H45.41a4.35,4.35,0,0,1,4.35,4.35,2,2,0,0,0,2,2H63.58a1.18,1.18,0,1,1,0,2.36Z"/><path class="cls-8" d="M33.77,266.23a6.64,6.64,0,1,1,6.64-6.64A6.65,6.65,0,0,1,33.77,266.23Zm0-10.92a4.28,4.28,0,1,0,4.28,4.28A4.28,4.28,0,0,0,33.77,255.31Z"/><path class="cls-8" d="M92.51,261.64H80.68a1.18,1.18,0,1,1,0-2.36H92.51a2,2,0,0,0,2-2A4.35,4.35,0,0,1,98.84,253h12.67a1.18,1.18,0,0,1,0,2.36H98.84a2,2,0,0,0-2,2A4.34,4.34,0,0,1,92.51,261.64Z"/><path class="cls-6" d="M69.53,484.08h2.53a10.21,10.21,0,0,1,10.21,10.21V507a0,0,0,0,1,0,0h-23a0,0,0,0,1,0,0V494.29A10.21,10.21,0,0,1,69.53,484.08Z"/><path class="cls-6" d="M58.87,265.72v-9a5.85,5.85,0,0,1,5.85-5.85H77.05a5.85,5.85,0,0,1,5.85,5.85v9Z"/><rect class="cls-6" x="104.22" y="297.21" width="14.58" height="21.96" rx="2.78"/><path class="cls-7" d="M70.52,278.84h.73a2.95,2.95,0,0,1,2.95,2.95v202.3a0,0,0,0,1,0,0H67.57a0,0,0,0,1,0,0V281.78A2.95,2.95,0,0,1,70.52,278.84Z"/><rect class="cls-6" x="62.72" y="341.6" width="16.32" height="21.09" rx="7.26"/><rect class="cls-6" x="62.72" y="391.12" width="16.32" height="28.72" rx="7.26"/><rect class="cls-6" x="39.32" y="505.63" width="63.12" height="10.17"/><circle class="cls-4" cx="39.32" cy="515.8" r="5.43"/><circle class="cls-4" cx="102.44" cy="515.8" r="5.43"/><path class="cls-8" d="M110.48,266.23a6.64,6.64,0,1,1,6.64-6.64A6.65,6.65,0,0,1,110.48,266.23Zm0-10.92a4.28,4.28,0,1,0,4.28,4.28A4.28,4.28,0,0,0,110.48,255.31Z"/><rect class="cls-7" x="97.91" y="274.53" width="26.1" height="40.77" rx="11.61"/><rect class="cls-6" x="97.91" y="291.81" width="26.1" height="8.52"/><rect class="cls-6" x="63.59" y="263.61" width="14.58" height="21.96" rx="2.78"/><g class="cls-24"><circle class="cls-12" cx="179.87" cy="220.23" r="26.26"/><polygon class="cls-25" points="195.68 214.3 195.68 226.25 185.85 226.25 185.85 236.09 173.89 236.09 173.89 226.25 164.06 226.25 164.06 214.3 173.89 214.3 173.89 204.47 185.85 204.47 185.85 214.3 195.68 214.3"/></g><path class="cls-26" d="M351.14,215.94a24.41,24.41,0,0,1-2.09-48.74c.73-.06,1.45-.1,2.17-.1a24.42,24.42,0,0,1,2.09,48.75c-.73.06-1.45.09-2.17.09m.08-52.94c-.83,0-1.68,0-2.53.11a28.52,28.52,0,0,0,2.45,56.94c.83,0,1.68,0,2.53-.11A28.52,28.52,0,0,0,351.22,163"/><path class="cls-25" d="M341.58,196.79a2.26,2.26,0,0,1-.19-4.52l9.7-.85,10-12.21a2.28,2.28,0,0,1,1.74-.81,2.27,2.27,0,0,1,1.73,3.72L354,195.05a2.24,2.24,0,0,1-1.54.8l-10.63.93h-.2m9.64-29.69c-.72,0-1.44,0-2.17.1a24.41,24.41,0,0,0,2.09,48.74c.72,0,1.44,0,2.17-.09a24.42,24.42,0,0,0-2.09-48.75"/><path class="cls-26" d="M362.78,178.4a2.28,2.28,0,0,0-1.74.81l-10,12.21-9.7.85a2.26,2.26,0,0,0,.19,4.52h.2l10.63-.93a2.24,2.24,0,0,0,1.54-.8l10.56-12.93a2.27,2.27,0,0,0-1.73-3.72"/><path class="cls-27" d="M471.13,208.56v-8.12h6.68v-6.68h8.12v6.68h6.68v8.12h-6.68v6.68h-8.12v-6.68h-6.68m10.74-21.93a17.84,17.84,0,1,0,17.84,17.84,17.84,17.84,0,0,0-17.84-17.84"/><polyline class="cls-28" points="485.93 193.76 477.81 193.76 477.81 200.44 471.13 200.44 471.13 208.56 477.81 208.56 477.81 215.24 485.93 215.24 485.93 208.56 492.61 208.56 492.61 200.44 485.93 200.44 485.93 193.76"/><path class="cls-27" d="M113.46,148.89v-10h8.23v-8.24h10v8.24h8.23v10h-8.23v8.24h-10v-8.24h-8.23m13.24-27a22,22,0,1,0,22,22,22,22,0,0,0-22-22"/><polyline class="cls-28" points="131.71 130.64 121.69 130.64 121.69 138.88 113.46 138.88 113.46 148.89 121.69 148.89 121.69 157.13 131.71 157.13 131.71 148.89 139.94 148.89 139.94 138.88 131.71 138.88 131.71 130.64"/><path class="cls-27" d="M243.6,159.68v-10h8.24v-8.23h10v8.23h8.24v10h-8.24v8.23h-10v-8.23H243.6m13.24-27a22,22,0,1,0,22,22,22,22,0,0,0-22-22"/><polyline class="cls-28" points="261.85 141.43 251.84 141.43 251.84 149.66 243.6 149.66 243.6 159.68 251.84 159.68 251.84 167.91 261.85 167.91 261.85 159.68 270.09 159.68 270.09 149.66 261.85 149.66 261.85 141.43"/><path class="cls-29" d="M438.8,0H650a0,0,0,0,1,0,0V151.68a0,0,0,0,1,0,0H462.8a24,24,0,0,1-24-24V0A0,0,0,0,1,438.8,0Z"/></svg>